<svg xmlns="http://www.w3.org/2000/svg" xmlns:xlink="http://www.w3.org/1999/xlink" width="132" height="45" version="1.1" viewBox="0 0 132 45"><title>Group</title><desc>Created with Sketch.</desc><g id="Page-1" fill="none" fill-rule="evenodd" stroke="none" stroke-width="1"><g id="Group" transform="translate(0.310688, -0.292875)"><polygon id="Shape" fill="#FFF" points="125.331 14.8 117.931 13.082 116.61 12.554 82.648 12.818 82.648 29.204 125.331 29.336"/><path id="Shape" fill="#F48120" d="M111.456059,27.7506138 C111.852496,26.429156 111.72035,25.1076982 111.059621,24.3148235 C110.398893,23.5219488 109.473872,22.9933657 108.28456,22.8612199 L85.2911943,22.5969284 C85.1590486,22.5969284 85.0269028,22.4647826 84.894757,22.4647826 C84.7626112,22.3326368 84.7626112,22.200491 84.894757,22.0683453 C85.0269028,21.8040537 85.1590486,21.6719079 85.4233401,21.6719079 L108.548852,21.4076164 C111.323913,21.2754706 114.23112,19.0289923 115.288286,16.3860767 L116.609744,12.9502864 C116.609744,12.8181407 116.74189,12.6859949 116.609744,12.5538491 C115.156141,5.81441432 109.077435,0.79287468 101.941563,0.79287468 C95.3342736,0.79287468 89.6520051,5.02153964 87.6698184,10.9680997 C86.3483606,10.0430793 84.7626112,9.51449616 82.9125703,9.64664194 C79.7410716,9.9109335 77.2303018,12.5538491 76.8338644,15.7253478 C76.7017186,16.5182225 76.8338644,17.3110972 76.9660102,18.1039719 C71.8123248,18.2361176 67.5836598,22.4647826 67.5836598,27.7506138 C67.5836598,28.2791969 67.5836598,28.6756343 67.7158056,29.2042174 C67.7158056,29.4685089 67.9800972,29.6006547 68.1122429,29.6006547 L110.531038,29.6006547 C110.79533,29.6006547 111.059621,29.4685089 111.059621,29.2042174 L111.456059,27.7506138 L111.456059,27.7506138 Z"/><path id="Shape" fill="#FAAD3F" d="M118.724077,12.9502864 L118.063348,12.9502864 C117.931202,12.9502864 117.799056,13.0824322 117.66691,13.214578 L116.74189,16.3860767 C116.345453,17.7075345 116.477598,19.0289923 117.138327,19.821867 C117.799056,20.6147417 118.724077,21.1433248 119.913389,21.2754706 L124.802783,21.5397621 C124.934928,21.5397621 125.067074,21.6719079 125.19922,21.6719079 C125.331366,21.8040537 125.331366,21.9361995 125.19922,22.0683453 C125.067074,22.3326368 124.934928,22.4647826 124.670637,22.4647826 L119.649097,22.7290742 C116.874036,22.8612199 113.966829,25.1076982 112.909662,27.7506138 L112.645371,28.9399258 C112.513225,29.0720716 112.645371,29.3363632 112.909662,29.3363632 L130.352905,29.3363632 C130.617197,29.3363632 130.749343,29.2042174 130.749343,28.9399258 C131.013634,27.8827596 131.277926,26.6934476 131.277926,25.5041355 C131.277926,18.632555 125.595657,12.9502864 118.724077,12.9502864"/><g id="Shape" fill="#404041" transform="translate(0.000000, 34.036445)"><polygon points="14.593 .321 17.5 .321 17.5 8.25 22.522 8.25 22.522 10.761 14.593 10.761"/><path d="M25.5613018,5.47514322 C25.5613018,2.43579028 27.9399258,0.05716624 31.2435703,0.05716624 C34.5472148,0.05716624 36.7936931,2.43579028 36.7936931,5.47514322 C36.7936931,8.51449616 34.415069,10.8931202 31.1114245,10.8931202 C27.9399258,10.8931202 25.5613018,8.51449616 25.5613018,5.47514322 M33.8864859,5.47514322 C33.8864859,3.88939386 32.8293197,2.56793606 31.2435703,2.56793606 C29.657821,2.56793606 28.6006547,3.88939386 28.6006547,5.34299744 C28.6006547,6.79660102 29.657821,8.11805882 31.2435703,8.11805882 C32.8293197,8.38235038 33.8864859,7.06089258 33.8864859,5.47514322"/><path d="M40.3616291,6.13587212 L40.3616291,0.3214578 L43.2688363,0.3214578 L43.2688363,6.13587212 C43.2688363,7.5894757 44.061711,8.38235038 45.251023,8.38235038 C46.440335,8.38235038 47.2332097,7.72162148 47.2332097,6.2680179 L47.2332097,0.3214578 L50.1404169,0.3214578 L50.1404169,6.13587212 C50.1404169,9.5716624 48.1582302,11.025266 45.251023,11.025266 C42.2116701,10.8931202 40.3616291,9.43951662 40.3616291,6.13587212"/><path d="M54.5012276,0.3214578 L58.5977468,0.3214578 C62.2978286,0.3214578 64.5443069,2.43579028 64.5443069,5.47514322 C64.5443069,8.51449616 62.2978286,10.7609744 58.5977468,10.7609744 L54.6333734,10.7609744 L54.6333734,0.3214578 L54.5012276,0.3214578 Z M58.5977468,8.11805882 C60.3156419,8.11805882 61.5049539,7.19303836 61.5049539,5.47514322 C61.5049539,3.75724808 60.3156419,2.83222762 58.5977468,2.83222762 L57.4084348,2.83222762 L57.4084348,8.11805882 L58.5977468,8.11805882 Z"/><polygon points="71.548 4.55 76.437 4.55 76.437 6.929 71.548 6.929 71.548 10.761 68.641 10.761 68.641 .321 76.966 .321 76.966 2.832 71.548 2.832"/><polygon points="81.063 .321 83.97 .321 83.97 8.25 88.991 8.25 88.991 10.761 81.063 10.761"/><path d="M96.5235856,0.18931202 L99.4307928,0.18931202 L103.923749,10.7609744 L100.752251,10.7609744 L99.9593759,8.9109335 L95.8628567,8.9109335 L95.0699821,10.7609744 L92.0306291,10.7609744 L96.5235856,0.18931202 L96.5235856,0.18931202 Z M99.1665012,6.66445524 L97.9771892,3.75724808 L96.7878772,6.66445524 L99.1665012,6.66445524 L99.1665012,6.66445524 Z"/><path d="M107.623831,0.3214578 L112.513225,0.3214578 C114.098974,0.3214578 115.156141,0.71789514 115.949015,1.51076982 C116.609744,2.17149872 116.874036,2.9643734 116.874036,3.88939386 C116.874036,5.47514322 116.081161,6.53230946 114.759703,7.06089258 L117.270473,10.7609744 L113.966829,10.7609744 L111.852496,7.5894757 L110.531038,7.5894757 L110.531038,10.7609744 L107.623831,10.7609744 L107.623831,0.3214578 L107.623831,0.3214578 Z M112.381079,5.34299744 C113.3061,5.34299744 113.966829,4.81441432 113.966829,4.15368542 C113.966829,3.36081074 113.3061,2.9643734 112.381079,2.9643734 L110.531038,2.9643734 L110.531038,5.47514322 L112.381079,5.47514322 L112.381079,5.34299744 Z"/><polygon points="120.971 .321 129.428 .321 129.428 2.7 123.878 2.7 123.878 4.286 128.899 4.286 128.899 6.664 123.878 6.664 123.878 8.25 129.56 8.25 129.56 10.761 120.971 10.761"/><path d="M8.2502046,6.79660102 C7.85376726,7.72162148 6.9287468,8.38235038 5.87158056,8.38235038 C4.2858312,8.38235038 3.22866496,7.06089258 3.22866496,5.607289 C3.22866496,4.15368542 4.2858312,2.83222762 5.87158056,2.83222762 C7.06089258,2.83222762 7.98591304,3.6251023 8.38235038,4.55012276 L11.4217033,4.55012276 C10.8931202,2.03935294 8.77878772,0.18931202 5.87158056,0.18931202 C2.70008184,0.18931202 0.18931202,2.56793606 0.18931202,5.607289 C0.18931202,8.64664194 2.56793606,11.025266 5.73943478,11.025266 C8.51449616,11.025266 10.6288286,9.17522506 11.2895575,6.79660102 L8.2502046,6.79660102 L8.2502046,6.79660102 Z"/></g></g></g></svg>