<svg xmlns="http://www.w3.org/2000/svg" xmlns:xlink="http://www.w3.org/1999/xlink" id="Artwork" x="0" y="0" version="1.1" viewBox="0 0 65.3 55.8" xml:space="preserve" style="enable-background:new 0 0 65.3 55.8"><style type="text/css">.st0{fill:#fff}.st1{fill:#f6914d}</style><g><path d="M28.5,2H5.9C1.1,2,1.1,2,1.1,6.4c0,4.3,0,4.3,4.7,4.3h13.5v15.3l9.2-7.2V2z" class="st0"/><path d="M19.3,49.4c0,4.4,0,4.4,4.6,4.4c4.6,0,4.6,0,4.6-4.4V27.6l-9.2,7.2V49.4z" class="st1"/><path d="M35.8,2h22.6c4.7,0,5.7,0,5.7,4.3c0,4.3-1,4.3-5.7,4.3H45v15.3l-9.2-7.2V2z" class="st0"/><path d="M45,49.4c0,4.4,0,4.4-4.6,4.4c-4.6,0-4.6,0-4.6-4.4V27.6l9.2,7.2V49.4z" class="st1"/></g></svg>