<svg xmlns="http://www.w3.org/2000/svg" xmlns:xlink="http://www.w3.org/1999/xlink" width="720" height="720" preserveAspectRatio="xMidYMid meet" version="1.1" viewBox="0 0 720 720"><defs><path id="i9EdyN81O" d="M0 106.99L159.68 106.99L159.68 618.99L0 618.99L0 106.99Z"/><path id="i5umT3Hfp" d="M159.68 106.99L720 106.99L720 597.89L159.68 597.89L159.68 106.99Z"/><path id="i2uLPhMiqx" d="M361.4 224.41L692.24 224.41L692.24 467.09L361.4 467.09L361.4 224.41Z"/><path id="c9skO5VlD" d="M361.4 492.99L692.24 492.99L692.24 597.89L361.4 597.89L361.4 492.99Z"/><path id="aRqO4ZUbV" d="M361.4 168.69L506.22 168.69L506.22 181.14L361.4 181.14L361.4 168.69Z"/><path id="anGA8A43G" d="M199.55 224.41L318.33 224.41L318.33 236.87L199.55 236.87L199.55 224.41Z"/><path id="b2LVVokXle" d="M199.55 256.51L318.33 256.51L318.33 268.97L199.55 268.97L199.55 256.51Z"/><path id="bgufGJhT" d="M199.55 288.89L318.33 288.89L318.33 301.34L199.55 301.34L199.55 288.89Z"/><path id="b7tk1ypnG" d="M199.55 320.75L318.33 320.75L318.33 333.2L199.55 333.2L199.55 320.75Z"/><path id="aDW3qZGYp" d="M199.55 352.87L318.33 352.87L318.33 365.32L199.55 365.32L199.55 352.87Z"/><path id="e4gEGph0be" d="M199.55 384.73L318.33 384.73L318.33 397.18L199.55 397.18L199.55 384.73Z"/><path id="c17p4JT7as" d="M199.55 416.85L318.33 416.85L318.33 429.3L199.55 429.3L199.55 416.85Z"/><path id="a1PWd1EQHg" d="M159.68 106.99L720 106.99L720 141.41L159.68 141.41L159.68 106.99Z"/><path id="e58nzk4zce" d="M159.68 597.89L720 597.89L720 618.99L159.68 618.99L159.68 597.89Z"/></defs><g><g><g><use fill="#424242" fill-opacity="1" opacity="1" xlink:href="#i9EdyN81O"/></g><g><use fill="#fafafa" fill-opacity="1" opacity="1" xlink:href="#i5umT3Hfp"/></g><g><use fill="#e1e1e1" fill-opacity="1" opacity="1" xlink:href="#i2uLPhMiqx"/></g><g><use fill="#e1e1e1" fill-opacity="1" opacity="1" xlink:href="#c9skO5VlD"/></g><g><use fill="#e1e1e1" fill-opacity="1" opacity="1" xlink:href="#aRqO4ZUbV"/></g><g><use fill="#e1e1e1" fill-opacity="1" opacity="1" xlink:href="#anGA8A43G"/></g><g><use fill="#e1e1e1" fill-opacity="1" opacity="1" xlink:href="#b2LVVokXle"/></g><g><use fill="#e1e1e1" fill-opacity="1" opacity="1" xlink:href="#bgufGJhT"/></g><g><use fill="#e1e1e1" fill-opacity="1" opacity="1" xlink:href="#b7tk1ypnG"/></g><g><use fill="#e1e1e1" fill-opacity="1" opacity="1" xlink:href="#aDW3qZGYp"/></g><g><use fill="#e1e1e1" fill-opacity="1" opacity="1" xlink:href="#e4gEGph0be"/></g><g><use fill="#e1e1e1" fill-opacity="1" opacity="1" xlink:href="#c17p4JT7as"/></g><g><use fill="#2196f3" fill-opacity="1" opacity="1" xlink:href="#a1PWd1EQHg"/></g><g><use fill="#616161" fill-opacity="1" opacity="1" xlink:href="#e58nzk4zce"/><g><use fill-opacity="0" stroke="#000" stroke-opacity="0" stroke-width="1" opacity="1" xlink:href="#e58nzk4zce"/></g></g></g></g></svg>