<svg xmlns="http://www.w3.org/2000/svg" xmlns:xlink="http://www.w3.org/1999/xlink" width="720" height="720" preserveAspectRatio="xMidYMid meet" version="1.1" viewBox="0 0 720 720"><defs><path id="dFJ4YztKv" d="M0 0L720 0L720 720L0 720L0 0Z"/><path id="b29TZxZeV9" d="M0 0L136.48 0L136.48 534.26L0 534.26L0 0Z"/><path id="f5VWVNTmzT" d="M156.65 366.55L360 366.55L360 720L156.65 720L156.65 366.55Z"/><path id="dxcqgS9MV" d="M315.66 273.64L618.59 273.64L618.59 345.96L315.66 345.96L315.66 273.64Z"/><path id="b37eXal7ye" d="M639.51 273.64L720 273.64L720 345.96L639.51 345.96L639.51 273.64Z"/><path id="a4sm0Xq3Q" d="M156.65 0L295.46 0L295.46 345.96L156.65 345.96L156.65 0Z"/><path id="a1ML3hiN4P" d="M380.55 647.68L719.98 647.68L719.98 720L380.55 720L380.55 647.68Z"/><path id="a1EokvZhFH" d="M380.55 366.55L719.98 366.55L719.98 626.54L380.55 626.54L380.55 366.55Z"/><path id="cguNmVcgP" d="M0 554.43L136.48 554.43L136.48 720.08L0 720.08L0 554.43Z"/><path id="b5eDVWr4C" d="M528.69 0L720 0L720 252.64L528.69 252.64L528.69 0Z"/><path id="aoeqELKK" d="M315.66 0L505.44 0L505.44 163.9L315.66 163.9L315.66 0Z"/><path id="b11nUQrjbW" d="M315.66 185.18L505.44 185.18L505.44 252.64L315.66 252.64L315.66 185.18Z"/></defs><g><g><g><use fill="#fff" fill-opacity="1" opacity="1" xlink:href="#dFJ4YztKv"/></g><g><use fill="#478fcc" fill-opacity="1" opacity="1" xlink:href="#b29TZxZeV9"/></g><g><use fill="#478fcc" fill-opacity="1" opacity="1" xlink:href="#f5VWVNTmzT"/></g><g><use fill="#88c1e9" fill-opacity="1" opacity="1" xlink:href="#dxcqgS9MV"/></g><g><use fill="#478fcc" fill-opacity="1" opacity="1" xlink:href="#b37eXal7ye"/></g><g><use fill="#88c1e9" fill-opacity="1" opacity="1" xlink:href="#a4sm0Xq3Q"/></g><g><use fill="#478fcc" fill-opacity="1" opacity="1" xlink:href="#a1ML3hiN4P"/></g><g><use fill="#88c1e9" fill-opacity="1" opacity="1" xlink:href="#a1EokvZhFH"/></g><g><use fill="#b3dbf5" fill-opacity="1" opacity="1" xlink:href="#cguNmVcgP"/></g><g><use fill="#b3dbf5" fill-opacity="1" opacity="1" xlink:href="#b5eDVWr4C"/></g><g><use fill="#2a68b2" fill-opacity="1" opacity="1" xlink:href="#aoeqELKK"/></g><g><use fill="#478fcc" fill-opacity="1" opacity="1" xlink:href="#b11nUQrjbW"/></g></g></g></svg>