<svg xmlns="http://www.w3.org/2000/svg" xmlns:xlink="http://www.w3.org/1999/xlink" width="720" height="720" preserveAspectRatio="xMidYMid meet" version="1.1" viewBox="0 0 720 720"><defs><path id="a1GCROqoH7" d="M0 106.99L159.68 106.99L159.68 586.96L0 586.96L0 106.99Z"/><path id="a2bnQQB4i" d="M159.68 106.99L720 106.99L720 586.96L159.68 586.96L159.68 106.99Z"/><path id="b7jzeRRYL" d="M361.4 224.41L692.24 224.41L692.24 467.09L361.4 467.09L361.4 224.41Z"/><path id="f6lCQZu423" d="M361.4 492.99L692.24 492.99L692.24 586.96L361.4 586.96L361.4 492.99Z"/><path id="bdbURVjD1" d="M361.4 168.69L506.22 168.69L506.22 181.14L361.4 181.14L361.4 168.69Z"/><path id="a2JpwG6qXI" d="M199.55 224.41L318.33 224.41L318.33 236.87L199.55 236.87L199.55 224.41Z"/><path id="b9kq4utQ7" d="M199.55 256.51L318.33 256.51L318.33 268.97L199.55 268.97L199.55 256.51Z"/><path id="cgh7UQWXc" d="M199.55 288.89L318.33 288.89L318.33 301.34L199.55 301.34L199.55 288.89Z"/><path id="a2CnOGedLL" d="M199.55 320.75L318.33 320.75L318.33 333.2L199.55 333.2L199.55 320.75Z"/><path id="b5rBLfXC0W" d="M199.55 352.87L318.33 352.87L318.33 365.32L199.55 365.32L199.55 352.87Z"/><path id="aMQmIRqXg" d="M199.55 384.73L318.33 384.73L318.33 397.18L199.55 397.18L199.55 384.73Z"/><path id="j5uZMS8S1t" d="M199.55 416.85L318.33 416.85L318.33 429.3L199.55 429.3L199.55 416.85Z"/><path id="abSEhASt2" d="M159.68 106.99L720 106.99L720 123.23L159.68 123.23L159.68 106.99Z"/><path id="bbWA3LL0R" d="M0 586.96L720 586.96L720 618.99L0 618.99L0 586.96Z"/></defs><g><g><g><use fill="#2a68b2" fill-opacity="1" opacity="1" xlink:href="#a1GCROqoH7"/></g><g><use fill="#fafafa" fill-opacity="1" opacity="1" xlink:href="#a2bnQQB4i"/></g><g><use fill="#e1e1e1" fill-opacity="1" opacity="1" xlink:href="#b7jzeRRYL"/></g><g><use fill="#e1e1e1" fill-opacity="1" opacity="1" xlink:href="#f6lCQZu423"/></g><g><use fill="#e1e1e1" fill-opacity="1" opacity="1" xlink:href="#bdbURVjD1"/></g><g><use fill="#e1e1e1" fill-opacity="1" opacity="1" xlink:href="#a2JpwG6qXI"/></g><g><use fill="#e1e1e1" fill-opacity="1" opacity="1" xlink:href="#b9kq4utQ7"/></g><g><use fill="#e1e1e1" fill-opacity="1" opacity="1" xlink:href="#cgh7UQWXc"/></g><g><use fill="#e1e1e1" fill-opacity="1" opacity="1" xlink:href="#a2CnOGedLL"/></g><g><use fill="#e1e1e1" fill-opacity="1" opacity="1" xlink:href="#b5rBLfXC0W"/></g><g><use fill="#e1e1e1" fill-opacity="1" opacity="1" xlink:href="#aMQmIRqXg"/></g><g><use fill="#e1e1e1" fill-opacity="1" opacity="1" xlink:href="#j5uZMS8S1t"/></g><g><use fill="#afafaf" fill-opacity="1" opacity="1" xlink:href="#abSEhASt2"/></g><g><use fill="#000" fill-opacity="1" opacity="1" xlink:href="#bbWA3LL0R"/></g></g></g></svg>